<svg xmlns="http://www.w3.org/2000/svg" width="120" height="px" viewBox="0 0 120 177"><g fill="none" stroke-width="18.333" stroke-linecap="round" stroke="#156082" stroke-miterlimit="8"><path d="M2268 1781.996h649.617" transform="matrix(.16736 0 0 .16745 -369.874 -122.912)"/><path d="M.009.004v1038.222" transform="matrix(.16736 0 0 -.16745 65.272 175.364)"/><path d="M2283.007 743.004h317.422" transform="matrix(.16736 0 0 .16745 -369.874 -122.912)"/><path d="M.01.008v129.909" transform="matrix(.16736 0 0 -.16745 12.385 23.263)"/><path d="M2219.01 950.01c0-35.901 29.08-65.013 65-65.013 35.897 0 64.979 29.112 64.979 65.012 0 35.9-29.082 64.99-64.978 64.99-35.92 0-65.002-29.09-65.002-64.99Zm0 0" transform="matrix(.16736 0 0 .16745 -369.874 -122.912)"/><path d="M.01.002v64.966" transform="matrix(.16736 0 0 -.16745 12.385 60.11)"/></g></svg>