<?xml version="1.0" encoding="UTF-8"?>
<svg xmlns="http://www.w3.org/2000/svg" xmlns:xlink="http://www.w3.org/1999/xlink" width="150px" height="150px" viewBox="0 0 150 150" version="1.1">
<g id="surface1">
<path style=" stroke:none;fill-rule:nonzero;fill:rgb(98.823529%,91.764706%,16.862745%);fill-opacity:1;" d="M 39.582031 48.394531 L 102.082031 48.394531 L 102.082031 124.199219 L 39.582031 124.199219 Z M 39.582031 48.394531 "/>
<path style=" stroke:none;fill-rule:nonzero;fill:rgb(94.509804%,70.196078%,10.980392%);fill-opacity:1;" d="M 84.429688 48.394531 L 68.75 124.199219 L 102.082031 124.199219 L 102.082031 48.394531 Z M 84.429688 48.394531 "/>
<path style=" stroke:none;fill-rule:nonzero;fill:rgb(100%,100%,100%);fill-opacity:1;" d="M 92.070312 32.082031 C 89.351562 32.082031 86.855469 33.0625 84.863281 34.703125 C 82.910156 30.667969 78.960938 27.898438 74.394531 27.894531 C 72.726562 27.894531 71.140625 28.261719 69.703125 28.925781 C 67.371094 25.757812 63.746094 23.710938 59.664062 23.707031 C 53.527344 23.703125 48.402344 28.300781 47.171875 34.4375 C 46.445312 34.253906 45.699219 34.132812 44.921875 34.132812 C 39.5 34.128906 35.097656 38.800781 35.09375 44.5625 L 35.082031 61.261719 C 35.078125 63.558594 36.84375 65.4375 39.007812 65.4375 L 40.96875 65.441406 C 43.132812 65.441406 44.902344 63.566406 44.902344 61.269531 L 44.90625 57.9375 C 46.09375 58.710938 47.476562 59.183594 48.964844 59.183594 L 52.828125 59.1875 C 55.335938 59.191406 57.550781 57.90625 58.992188 55.953125 C 61.128906 59.167969 64.644531 61.285156 68.609375 61.289062 C 75.089844 61.292969 80.398438 55.660156 80.402344 48.773438 L 103.15625 48.789062 C 103.59375 47.484375 103.84375 46.082031 103.84375 44.617188 C 103.851562 37.699219 98.578125 32.089844 92.070312 32.082031 Z M 92.070312 32.082031 "/>
<path style=" stroke:none;fill-rule:nonzero;fill:rgb(100%,100%,100%);fill-opacity:1;" d="M 41.265625 51.683594 C 41.269531 46.082031 45.671875 41.542969 51.09375 41.546875 C 51.871094 41.546875 52.617188 41.664062 53.339844 41.839844 C 54.570312 35.882812 59.695312 31.414062 65.835938 31.417969 C 69.917969 31.421875 73.539062 33.410156 75.875 36.488281 C 77.3125 35.84375 78.894531 35.484375 80.5625 35.484375 C 85.128906 35.488281 89.082031 38.179688 91.035156 42.101562 C 93.027344 40.507812 95.523438 39.554688 98.238281 39.554688 C 99.34375 39.554688 100.40625 39.726562 101.417969 40.019531 C 99.816406 35.265625 95.453125 31.851562 90.308594 31.847656 C 87.589844 31.84375 85.09375 32.800781 83.101562 34.394531 C 81.148438 30.46875 77.199219 27.78125 72.632812 27.777344 C 70.964844 27.773438 69.378906 28.136719 67.941406 28.777344 C 65.609375 25.699219 61.984375 23.710938 57.902344 23.707031 C 51.761719 23.703125 46.636719 28.171875 45.40625 34.132812 C 44.683594 33.957031 43.9375 33.839844 43.160156 33.839844 C 37.738281 33.835938 33.335938 38.371094 33.332031 43.972656 L 33.316406 60.199219 C 33.316406 62.433594 35.082031 64.257812 37.242188 64.261719 L 39.207031 64.261719 C 39.957031 64.261719 40.65625 64.03125 41.253906 63.652344 Z M 41.265625 51.683594 "/>
<path style="fill:none;stroke-width:2;stroke-linecap:round;stroke-linejoin:round;stroke:rgb(0%,0%,0%);stroke-opacity:1;stroke-miterlimit:10;" d="M 49.5 50.499375 L 55.5 50.499375 C 57.699375 50.499375 59.499375 48.699375 59.499375 46.5 L 59.499375 32.499375 C 59.499375 30.3 57.699375 28.5 55.5 28.5 L 49.5 28.5 " transform="matrix(2.083333,0,0,2.083333,0,0)"/>
<path style="fill:none;stroke-width:2.0185;stroke-linecap:round;stroke-linejoin:round;stroke:rgb(0%,0%,0%);stroke-opacity:1;stroke-miterlimit:10;" d="M 38.593125 23.229375 L 48.999375 23.229375 L 48.999375 60 L 20.000625 60 L 20.000625 39.635625 " transform="matrix(2.083333,0,0,2.083333,0,0)"/>
<path style="fill:none;stroke-width:2;stroke-linecap:round;stroke-linejoin:round;stroke:rgb(0%,0%,0%);stroke-opacity:1;stroke-miterlimit:10;" d="M 20.251875 31.3125 C 21.00375 31.05 21.553125 30.294375 21.553125 29.409375 L 21.555 27.81 C 22.125 28.183125 22.78875 28.408125 23.503125 28.408125 L 25.3575 28.41 C 26.56125 28.411875 27.624375 27.795 28.31625 26.859375 C 29.341875 28.400625 31.029375 29.416875 32.9325 29.41875 C 36.043125 29.420625 38.59125 26.716875 38.593125 23.41125 L 49.515 23.41875 C 49.725 22.7925 49.845 22.119375 49.845 21.41625 C 49.84875 18.095625 47.3175 15.403125 44.19375 15.399375 C 42.88875 15.399375 41.690625 15.87 40.734375 16.6575 C 39.796875 14.720625 37.90125 13.39125 35.709375 13.389375 C 34.90875 13.389375 34.1475 13.5675 33.4575 13.884375 C 32.338125 12.36375 30.598125 11.38125 28.63875 11.379375 C 25.693125 11.3775 23.233125 13.584375 22.6425 16.53 C 22.29375 16.441875 21.935625 16.38375 21.5625 16.38375 C 18.96 16.381875 16.846875 18.624375 16.845 21.39 L 16.839375 29.405625 C 16.8375 30.508125 17.685 31.41 18.72375 31.41 L 19.665 31.411875 C 19.869375 31.411875 20.06625 31.37625 20.251875 31.3125 " transform="matrix(2.083333,0,0,2.083333,0,0)"/>
</g>
</svg>
