<svg xmlns="http://www.w3.org/2000/svg" width="80" height="px" viewBox="0 0 80 124"><path d="M.73 0H80v124H.73Zm0 0" fill="#fff"/><path d="M0 0h79.27v124H0Zm0 0" fill="#fff"/><path d="M3.832 2.734h71.059v118.532H3.832Zm0 0"/><path d="M32.852 100.203V71.727h-.723v-1.829h-2.895v3.274h-.722v26.422m15.914-1.449V71.723h-.723v-3.274H40.81v2.59L40.086 71v27.871m-1.449-3.621V71l-.723-.383V68.45H35.02v3.278h-.723v22.796M50.21 93.8V73.173h-.722v-3.274h-2.89v1.825h-.727V93.8" fill="#fcea2b"/><path d="M29.957 94.828v-5.644h-.723V75.77H26.34v13.418h-.723v2.515m21.703 5.375v-7.242h-.722V74.242h-2.895v15.633l-.723-.04v8.692m-1.449-.727v-7.24h-.722V73.52h-2.895v17.079l-.723-.04v8.692m-1.445-.724v-8.691l-.726-.383v-15.21h-2.891v15.593h-.727v7.242m21.703-5.449V88.46h-.722V75.77h-2.895v13.418h-.722v6.519" fill="#fcea2b"/><path d="M27.063 107.707c7.234 5.602 16.64 5.602 24.597 0l1.445-16.078L39.363 93.8l-13.746-2.172Zm0 0" fill="#ea5a47"/><path d="M333.096 79.31V39.664h-31.732v31.691m-31.731 0V39.664h-31.731V79.31m158.613 15.867V55.53h-31.688v23.78m-158.614 0V55.53h-31.731v39.647m-23.809 374.818c79.306 61.371 182.423 61.371 269.651 0l15.845-176.546-150.649 23.779-150.692-23.78Zm277.574-204.517V119.811h-31.732v150.671M237.902 280.49V103.089h-31.689v172.397m-31.731-5.004V119.811H142.75v145.667m222.077 10.008V103.09h-31.731v177.4m-31.732 5.004V95.177h-31.731v190.317" transform="matrix(.09122 0 0 .09134 13.318 64.826)" fill="none" stroke-width="15.861" stroke-linecap="round" stroke-linejoin="round" stroke="#000" stroke-miterlimit="10"/></svg>