<?xml version="1.0" encoding="UTF-8"?>
<svg xmlns="http://www.w3.org/2000/svg" xmlns:xlink="http://www.w3.org/1999/xlink" width="150px" height="150px" viewBox="0 0 150 150" version="1.1">
<g id="surface1">
<path style=" stroke:none;fill-rule:nonzero;fill:rgb(98.823529%,91.764706%,16.862745%);fill-opacity:1;" d="M 137.5 75 L 115.257812 85.796875 L 129.128906 106.261719 L 104.460938 104.464844 L 106.261719 129.128906 L 85.792969 115.257812 L 75 137.5 L 64.203125 115.257812 L 43.738281 129.128906 L 45.535156 104.460938 L 20.871094 106.261719 L 34.742188 85.792969 L 12.5 75 L 34.742188 64.203125 L 20.871094 43.738281 L 45.539062 45.535156 L 43.738281 20.871094 L 64.207031 34.742188 L 75 12.5 L 85.796875 34.742188 L 106.261719 20.871094 L 104.464844 45.539062 L 129.128906 43.738281 L 115.257812 64.207031 Z M 137.5 75 "/>
<path style="fill:none;stroke-width:2;stroke-linecap:round;stroke-linejoin:round;stroke:rgb(0%,0%,0%);stroke-opacity:1;stroke-miterlimit:10;" d="M 55.828125 35.949375 C 55.828125 46.90125 46.95 55.7775 36 55.7775 C 25.05 55.7775 16.171875 46.90125 16.171875 35.949375 C 16.171875 24.999375 25.05 16.123125 36 16.123125 C 46.95 16.123125 55.828125 24.999375 55.828125 35.949375 Z M 55.828125 35.949375 " transform="matrix(2.083333,0,0,2.083333,0,0)"/>
<path style="fill:none;stroke-width:2;stroke-linecap:round;stroke-linejoin:round;stroke:rgb(0%,0%,0%);stroke-opacity:1;stroke-miterlimit:10;" d="M 66 36 L 55.32375 41.1825 L 61.981875 51.005625 L 50.14125 50.143125 L 51.005625 61.981875 L 41.180625 55.32375 L 36 66 L 30.8175 55.32375 L 20.994375 61.981875 L 21.856875 50.14125 L 10.018125 51.005625 L 16.67625 41.180625 L 6 36 L 16.67625 30.8175 L 10.018125 20.994375 L 21.85875 21.856875 L 20.994375 10.018125 L 30.819375 16.67625 L 36 6 L 41.1825 16.67625 L 51.005625 10.018125 L 50.143125 21.85875 L 61.981875 20.994375 L 55.32375 30.819375 Z M 66 36 " transform="matrix(2.083333,0,0,2.083333,0,0)"/>
</g>
</svg>
