<?xml version="1.0" encoding="UTF-8"?>
<svg xmlns="http://www.w3.org/2000/svg" xmlns:xlink="http://www.w3.org/1999/xlink" width="150px" height="150px" viewBox="0 0 150 150" version="1.1">
<g id="surface1">
<path style=" stroke:none;fill-rule:nonzero;fill:rgb(57.254902%,82.745098%,96.078431%);fill-opacity:1;" d="M 68.75 11.457031 L 68.75 36.457031 L 59.570312 64.582031 L 60.882812 72.917969 L 61.457031 77.082031 L 58.332031 87.5 L 58.332031 139.582031 L 91.667969 139.582031 L 91.667969 87.5 L 88.542969 77.082031 L 89.121094 72.917969 L 90.429688 64.582031 L 81.25 36.457031 L 81.25 11.457031 Z M 68.75 11.457031 "/>
<path style=" stroke:none;fill-rule:nonzero;fill:rgb(60.784314%,60.784314%,60.392157%);fill-opacity:1;" d="M 69.792969 8.332031 L 80.207031 8.332031 C 81.359375 8.332031 82.292969 9.265625 82.292969 10.417969 L 82.292969 15.625 C 82.292969 16.777344 81.359375 17.707031 80.207031 17.707031 L 69.792969 17.707031 C 68.640625 17.707031 67.707031 16.777344 67.707031 15.625 L 67.707031 10.417969 C 67.707031 9.265625 68.640625 8.332031 69.792969 8.332031 Z M 69.792969 8.332031 "/>
<path style=" stroke:none;fill-rule:nonzero;fill:rgb(38.039216%,69.803922%,89.411765%);fill-opacity:1;" d="M 81.25 15.625 L 81.25 35.417969 L 90.625 64.582031 L 88.542969 77.082031 L 91.667969 87.5 L 91.667969 139.582031 L 83.332031 139.582031 L 83.332031 89.582031 C 83.332031 86.457031 81.25 83.332031 81.25 78.125 C 81.25 72.917969 85.417969 70.832031 85.417969 66.667969 C 85.417969 59.375 75 40.625 75 26.042969 L 75 15.625 Z M 81.25 15.625 "/>
<path style=" stroke:none;fill-rule:nonzero;fill:rgb(24.705882%,24.705882%,24.705882%);fill-opacity:1;" d="M 75 8.332031 L 75 17.707031 L 80.207031 17.707031 C 81.363281 17.707031 82.292969 16.777344 82.292969 15.625 L 82.292969 10.417969 C 82.292969 9.261719 81.363281 8.332031 80.207031 8.332031 Z M 75 8.332031 "/>
<path style=" stroke:none;fill-rule:nonzero;fill:rgb(0%,0%,0%);fill-opacity:1;" d="M 77.082031 64.582031 C 77.082031 65.734375 76.152344 66.667969 75 66.667969 C 73.847656 66.667969 72.917969 65.734375 72.917969 64.582031 C 72.917969 63.433594 73.847656 62.5 75 62.5 C 76.152344 62.5 77.082031 63.433594 77.082031 64.582031 Z M 77.082031 64.582031 "/>
<path style=" stroke:none;fill-rule:nonzero;fill:rgb(0%,0%,0%);fill-opacity:1;" d="M 77.082031 72.917969 C 77.082031 74.066406 76.152344 75 75 75 C 73.847656 75 72.917969 74.066406 72.917969 72.917969 C 72.917969 71.765625 73.847656 70.832031 75 70.832031 C 76.152344 70.832031 77.082031 71.765625 77.082031 72.917969 Z M 77.082031 72.917969 "/>
<path style=" stroke:none;fill-rule:nonzero;fill:rgb(0%,0%,0%);fill-opacity:1;" d="M 82.082031 68.75 C 82.082031 67.597656 81.242188 66.667969 80.207031 66.667969 C 79.171875 66.667969 78.332031 67.597656 78.332031 68.75 C 78.332031 69.902344 79.171875 70.832031 80.207031 70.832031 C 81.242188 70.832031 82.082031 69.902344 82.082031 68.75 Z M 82.082031 68.75 "/>
<path style=" stroke:none;fill-rule:nonzero;fill:rgb(0%,0%,0%);fill-opacity:1;" d="M 71.667969 68.75 C 71.667969 67.597656 70.828125 66.667969 69.792969 66.667969 C 68.757812 66.667969 67.917969 67.597656 67.917969 68.75 C 67.917969 69.902344 68.757812 70.832031 69.792969 70.832031 C 70.828125 70.832031 71.667969 69.902344 71.667969 68.75 Z M 71.667969 68.75 "/>
<path style=" stroke:none;fill-rule:nonzero;fill:rgb(0%,0%,0%);fill-opacity:1;" d="M 85.9375 64.582031 C 85.9375 63.433594 85.238281 62.5 84.375 62.5 C 83.511719 62.5 82.8125 63.433594 82.8125 64.582031 C 82.8125 65.734375 83.511719 66.667969 84.375 66.667969 C 85.238281 66.667969 85.9375 65.734375 85.9375 64.582031 Z M 85.9375 64.582031 "/>
<path style=" stroke:none;fill-rule:nonzero;fill:rgb(0%,0%,0%);fill-opacity:1;" d="M 85.9375 72.917969 C 85.9375 71.765625 85.238281 70.832031 84.375 70.832031 C 83.511719 70.832031 82.8125 71.765625 82.8125 72.917969 C 82.8125 74.066406 83.511719 75 84.375 75 C 85.238281 75 85.9375 74.066406 85.9375 72.917969 Z M 85.9375 72.917969 "/>
<path style=" stroke:none;fill-rule:nonzero;fill:rgb(0%,0%,0%);fill-opacity:1;" d="M 67.1875 64.582031 C 67.1875 63.433594 66.488281 62.5 65.625 62.5 C 64.761719 62.5 64.0625 63.433594 64.0625 64.582031 C 64.0625 65.734375 64.761719 66.667969 65.625 66.667969 C 66.488281 66.667969 67.1875 65.734375 67.1875 64.582031 Z M 67.1875 64.582031 "/>
<path style=" stroke:none;fill-rule:nonzero;fill:rgb(0%,0%,0%);fill-opacity:1;" d="M 67.1875 72.917969 C 67.1875 71.765625 66.488281 70.832031 65.625 70.832031 C 64.761719 70.832031 64.0625 71.765625 64.0625 72.917969 C 64.0625 74.066406 64.761719 75 65.625 75 C 66.488281 75 67.1875 74.066406 67.1875 72.917969 Z M 67.1875 72.917969 "/>
<path style="fill:none;stroke-width:2;stroke-linecap:round;stroke-linejoin:round;stroke:rgb(0%,0%,0%);stroke-opacity:1;stroke-miterlimit:4;" d="M 33.500625 7.5 L 38.499375 7.5 " transform="matrix(2.083333,0,0,2.083333,0,0)"/>
<path style="fill:none;stroke-width:2;stroke-linecap:round;stroke-linejoin:round;stroke:rgb(0%,0%,0%);stroke-opacity:1;stroke-miterlimit:4;" d="M 31.5 43.5 L 40.5 43.5 " transform="matrix(2.083333,0,0,2.083333,0,0)"/>
<path style="fill:none;stroke-width:2;stroke-linecap:round;stroke-linejoin:round;stroke:rgb(0%,0%,0%);stroke-opacity:1;stroke-miterlimit:4;" d="M 38.000625 11.000625 L 38.000625 12.500625 C 38.000625 17.000625 43.5 28.5 43.5 32.000625 C 43.5 33.999375 42.500625 35.000625 42.500625 36.999375 C 42.500625 39 44.000625 39.999375 44.000625 42.999375 L 44.000625 66.999375 L 27.999375 66.999375 L 27.999375 42.999375 C 27.999375 39.999375 29.499375 39 29.499375 36.999375 C 29.499375 35.000625 28.5 33.999375 28.5 32.000625 C 28.5 28.5 33.999375 17.000625 33.999375 12.500625 L 33.999375 11.000625 " transform="matrix(2.083333,0,0,2.083333,0,0)"/>
</g>
</svg>
