<svg xmlns="http://www.w3.org/2000/svg" width="120" height="px" viewBox="0 0 120 150"><g fill="none" stroke-width="18.333" stroke-linecap="round" stroke="#156082" stroke-miterlimit="8"><path d="M2268.01 1781.999h649.588" transform="matrix(.14168 0 0 .14191 -294.687 -104.163)"/><path d="M0 .002v1038.227" transform="matrix(.14168 0 0 -.14191 73.672 148.614)"/><path d="M2283.01 743.001h317.404" transform="matrix(.14168 0 0 .14191 -294.687 -104.163)"/><path d="M.002-.003V129.92" transform="matrix(.14168 0 0 -.14191 28.902 19.714)"/><path d="M2218.989 949.997c0-35.894 29.115-64.99 65.013-64.99 35.899 0 64.987 29.096 64.987 64.99 0 35.894-29.088 65.016-64.987 65.016-35.898 0-65.013-29.122-65.013-65.016Zm0 0" transform="matrix(.14168 0 0 .14191 -294.687 -104.163)"/><path d="M.002-.007v64.961" transform="matrix(.14168 0 0 -.14191 28.902 50.94)"/><path d="M.001.004h194.877" transform="matrix(-.14168 0 0 .14191 56.512 51.23)"/><path d="M-.012.004h194.904" transform="matrix(-.14168 0 0 .14191 28.885 51.23)"/><path d="M.002-.002v259.846" transform="matrix(.14168 0 0 -.14191 28.902 89.949)"/><path d="m.01-.003 129.917 194.885" transform="matrix(.14168 0 0 -.14191 10.342 117.77)"/><path d="M2412.927 1561.873 2283.01 1366.99" transform="matrix(.14168 0 0 .14191 -294.687 -104.163)"/></g></svg>