<?xml version="1.0" encoding="UTF-8"?>
<!DOCTYPE svg PUBLIC "-//W3C//DTD SVG 1.1//EN" "http://www.w3.org/Graphics/SVG/1.1/DTD/svg11.dtd">
<svg xmlns="http://www.w3.org/2000/svg" version="1.1" width="80px" height="124px" style="shape-rendering:geometricPrecision; text-rendering:geometricPrecision; image-rendering:optimizeQuality; fill-rule:evenodd; clip-rule:evenodd" xmlns:xlink="http://www.w3.org/1999/xlink">
<g><path style="opacity:1" fill="#f7f7f7" d="M -0.5,-0.5 C 26.1667,-0.5 52.8333,-0.5 79.5,-0.5C 79.5,13.5 79.5,27.5 79.5,41.5C 77.8333,41.5 76.1667,41.5 74.5,41.5C 74.5,28.5 74.5,15.5 74.5,2.5C 50.8333,2.5 27.1667,2.5 3.5,2.5C 2.50164,36.996 2.1683,71.6627 2.5,106.5C 2.37972,109.48 1.71305,112.313 0.5,115C 1.52656,115.513 2.52656,116.013 3.5,116.5C 3.5,117.833 3.5,119.167 3.5,120.5C 27.1667,120.5 50.8333,120.5 74.5,120.5C 74.5,98.8333 74.5,77.1667 74.5,55.5C 75.4097,52.0078 77.0764,49.0078 79.5,46.5C 79.5,72.1667 79.5,97.8333 79.5,123.5C 52.8333,123.5 26.1667,123.5 -0.5,123.5C -0.5,82.1667 -0.5,40.8333 -0.5,-0.5 Z"/></g>
<g><path style="opacity:1" fill="#d3d1cf" d="M 3.5,2.5 C 3.33336,30.8353 3.50002,59.1686 4,87.5C 4.38258,86.944 4.88258,86.6107 5.5,86.5C 5.83333,86.5 6.16667,86.5 6.5,86.5C 6.57298,88.0269 5.90632,89.0269 4.5,89.5C 3.83333,95.1667 3.16667,100.833 2.5,106.5C 2.1683,71.6627 2.50164,36.996 3.5,2.5 Z"/></g>
<g><path style="opacity:1" fill="#010100" d="M 3.5,2.5 C 27.1667,2.5 50.8333,2.5 74.5,2.5C 74.5,15.5 74.5,28.5 74.5,41.5C 73.5,42.8333 72.5,44.1667 71.5,45.5C 69.2048,46.4746 67.2048,47.8079 65.5,49.5C 62.843,49.8297 60.1764,50.163 57.5,50.5C 49.5364,49.2175 41.5364,47.7175 33.5,46C 28.309,42.6269 23.6424,38.7936 19.5,34.5C 17.901,34.2322 16.5676,34.5655 15.5,35.5C 14.325,35.281 13.325,35.6143 12.5,36.5C 13.5401,38.5229 14.5401,40.5229 15.5,42.5C 14.2137,44.2901 12.7137,45.9568 11,47.5C 9.99136,49.0249 9.49136,50.6916 9.5,52.5C 9.28649,54.1439 9.61983,55.6439 10.5,57C 8.29466,60.3746 6.29466,63.8746 4.5,67.5C 6.11954,71.1065 8.11954,74.4398 10.5,77.5C 8.58323,80.331 6.91657,83.331 5.5,86.5C 4.88258,86.6107 4.38258,86.944 4,87.5C 3.50002,59.1686 3.33336,30.8353 3.5,2.5 Z"/></g>
<g><path style="opacity:1" fill="#cfbfb7" d="M 74.5,41.5 C 76.1667,41.5 77.8333,41.5 79.5,41.5C 79.5,43.1667 79.5,44.8333 79.5,46.5C 77.0764,49.0078 75.4097,52.0078 74.5,55.5C 73.8333,55.8333 73.1667,56.1667 72.5,56.5C 71.1266,56.6567 69.7932,56.49 68.5,56C 73.2979,54.1365 75.6313,50.6365 75.5,45.5C 74.1667,45.5 72.8333,45.5 71.5,45.5C 72.5,44.1667 73.5,42.8333 74.5,41.5 Z"/></g>
<g><path style="opacity:1" fill="#907e6e" d="M 19.5,34.5 C 23.6424,38.7936 28.309,42.6269 33.5,46C 41.5364,47.7175 49.5364,49.2175 57.5,50.5C 60.1764,50.163 62.843,49.8297 65.5,49.5C 62.158,51.3348 58.4914,52.5015 54.5,53C 55.6956,53.6543 55.6956,54.1543 54.5,54.5C 52.9291,53.6906 51.2624,53.3573 49.5,53.5C 47.4855,52.0762 45.1522,51.4095 42.5,51.5C 42.2172,50.7109 41.7172,50.0442 41,49.5C 38.2628,50.6105 35.4294,50.7772 32.5,50C 32.0853,47.9737 31.0853,46.4737 29.5,45.5C 24.7815,43.1138 21.4481,39.4472 19.5,34.5 Z"/></g>
<g><path style="opacity:1" fill="#6c5945" d="M 19.5,34.5 C 21.4481,39.4472 24.7815,43.1138 29.5,45.5C 31.0853,46.4737 32.0853,47.9737 32.5,50C 35.4294,50.7772 38.2628,50.6105 41,49.5C 41.7172,50.0442 42.2172,50.7109 42.5,51.5C 35.7017,50.6605 30.3684,52.3272 26.5,56.5C 25.914,56.2907 25.414,55.9574 25,55.5C 23.2069,57.8056 21.0403,58.1389 18.5,56.5C 16.4863,60.5274 14.4863,64.5274 12.5,68.5C 13.1776,70.516 13.8443,72.516 14.5,74.5C 13.0665,73.1667 11.7332,71.6667 10.5,70C 11.9542,65.9913 12.6208,61.8247 12.5,57.5C 12.7458,54.5299 14.4124,53.1966 17.5,53.5C 17.8882,49.448 18.5549,45.448 19.5,41.5C 18.1565,39.4714 16.8231,37.4714 15.5,35.5C 16.5676,34.5655 17.901,34.2322 19.5,34.5 Z"/></g>
<g><path style="opacity:1" fill="#513e2b" d="M 29.5,45.5 C 29.762,46.9778 29.4287,48.3112 28.5,49.5C 27.914,49.2907 27.414,48.9574 27,48.5C 25.3432,49.5087 23.6766,50.5087 22,51.5C 21.228,51.3552 20.5613,51.0219 20,50.5C 19.3828,46.375 19.8828,43.375 21.5,41.5C 23.6983,43.8601 26.365,45.1934 29.5,45.5 Z"/></g>
<g><path style="opacity:1" fill="#8d7b69" d="M 15.5,35.5 C 16.8231,37.4714 18.1565,39.4714 19.5,41.5C 18.5549,45.448 17.8882,49.448 17.5,53.5C 14.4124,53.1966 12.7458,54.5299 12.5,57.5C 11.1888,55.4402 11.1888,53.2735 12.5,51C 11.212,50.7613 10.212,51.2613 9.5,52.5C 9.49136,50.6916 9.99136,49.0249 11,47.5C 12.7137,45.9568 14.2137,44.2901 15.5,42.5C 14.5401,40.5229 13.5401,38.5229 12.5,36.5C 13.325,35.6143 14.325,35.281 15.5,35.5 Z"/></g>
<g><path style="opacity:1" fill="#060403" d="M 74.5,55.5 C 74.5,77.1667 74.5,98.8333 74.5,120.5C 50.8333,120.5 27.1667,120.5 3.5,120.5C 3.5,119.167 3.5,117.833 3.5,116.5C 5.92397,116.808 8.25731,116.474 10.5,115.5C 6.85525,109.333 7.68858,109 13,114.5C 12.5022,112.473 12.6689,110.473 13.5,108.5C 16.172,110.425 17.172,113.092 16.5,116.5C 17.5,116.5 18.5,116.5 19.5,116.5C 20.1667,116.5 20.8333,116.5 21.5,116.5C 26.0365,117.811 30.7031,118.477 35.5,118.5C 38.9758,119.643 42.6425,119.81 46.5,119C 47.7003,117.969 49.0337,117.135 50.5,116.5C 52.0564,117.547 53.7231,118.214 55.5,118.5C 57.9726,118.912 59.3059,117.912 59.5,115.5C 59.9383,113.874 60.2716,112.207 60.5,110.5C 59.8246,107.822 59.158,105.156 58.5,102.5C 56.5875,95.3719 57.5875,88.7052 61.5,82.5C 62.5,82.1667 63.1667,81.5 63.5,80.5C 64.7729,78.2872 65.7729,75.9538 66.5,73.5C 67.4794,70.3752 67.8128,67.0419 67.5,63.5C 68.0435,60.3004 69.7102,57.9671 72.5,56.5C 73.1667,56.1667 73.8333,55.8333 74.5,55.5 Z"/></g>
<g><path style="opacity:1" fill="#4f3c2a" d="M 42.5,51.5 C 45.1522,51.4095 47.4855,52.0762 49.5,53.5C 50.8695,55.0677 51.8695,56.901 52.5,59C 54.7148,59.1705 56.7148,59.8372 58.5,61C 58.0426,61.414 57.7093,61.914 57.5,62.5C 59.0737,63.9842 60.407,65.6508 61.5,67.5C 60.8333,68.8333 59.8333,69.8333 58.5,70.5C 55.5857,69.0786 52.5857,67.9119 49.5,67C 50.7736,66.0228 50.7736,65.1894 49.5,64.5C 49.6104,61.9412 48.9438,59.6079 47.5,57.5C 45.5658,57.9005 44.0658,58.9005 43,60.5C 42.9657,58.8204 42.799,57.3204 42.5,56C 41.175,56.1484 40.0084,55.9817 39,55.5C 37.0924,58.3323 36.259,57.999 36.5,54.5C 35.1779,54.33 34.0113,54.6634 33,55.5C 32.0187,57.9598 31.1854,60.4598 30.5,63C 31.9614,65.1305 32.9614,67.4638 33.5,70C 33.1667,70.8333 32.8333,71.6667 32.5,72.5C 31.55,67.5516 28.55,65.2182 23.5,65.5C 23.3398,67.1992 23.5065,68.8659 24,70.5C 25.7803,71.5937 27.6136,72.5937 29.5,73.5C 26.006,74.312 23.3394,72.9787 21.5,69.5C 20.1552,70.3467 19.1552,71.5134 18.5,73C 20.3211,74.7433 22.3211,76.2433 24.5,77.5C 25.2458,78.7362 25.5792,80.0695 25.5,81.5C 24.1667,81.5 23.5,82.1667 23.5,83.5C 21.4727,83.3379 19.4727,83.5045 17.5,84C 18.1667,84.3333 18.8333,84.6667 19.5,85C 18.4639,86.7755 18.4639,88.6089 19.5,90.5C 18.3523,89.105 17.3523,89.2716 16.5,91C 17.8588,93.575 19.8588,96.2417 22.5,99C 20.8333,100 19.1667,101 17.5,102C 18.1667,102.667 18.8333,103.333 19.5,104C 17.8739,103.805 16.2072,103.805 14.5,104C 16.3907,108.047 18.0573,112.214 19.5,116.5C 18.5,116.5 17.5,116.5 16.5,116.5C 17.172,113.092 16.172,110.425 13.5,108.5C 12.6689,110.473 12.5022,112.473 13,114.5C 7.68858,109 6.85525,109.333 10.5,115.5C 8.25731,116.474 5.92397,116.808 3.5,116.5C 2.52656,116.013 1.52656,115.513 0.5,115C 1.71305,112.313 2.37972,109.48 2.5,106.5C 3.16667,100.833 3.83333,95.1667 4.5,89.5C 5.39487,92.7383 5.39487,95.9049 4.5,99C 5,99.5 5.5,100 6,100.5C 7.10286,96.6437 7.93619,92.6437 8.5,88.5C 11.534,88.8606 14.534,88.3606 17.5,87C 15.833,85.1766 14.833,83.01 14.5,80.5C 15.5824,78.3272 15.5824,76.3272 14.5,74.5C 13.8443,72.516 13.1776,70.516 12.5,68.5C 14.4863,64.5274 16.4863,60.5274 18.5,56.5C 21.0403,58.1389 23.2069,57.8056 25,55.5C 25.414,55.9574 25.914,56.2907 26.5,56.5C 30.3684,52.3272 35.7017,50.6605 42.5,51.5 Z"/></g>
<g><path style="opacity:1" fill="#a48774" d="M 71.5,45.5 C 72.8333,45.5 74.1667,45.5 75.5,45.5C 75.6313,50.6365 73.2979,54.1365 68.5,56C 69.7932,56.49 71.1266,56.6567 72.5,56.5C 69.7102,57.9671 68.0435,60.3004 67.5,63.5C 66.0222,63.762 64.6888,63.4287 63.5,62.5C 64.3052,60.0846 65.3052,57.7513 66.5,55.5C 65.2839,54.9041 63.9506,54.7374 62.5,55C 66.9716,53.2637 70.9716,50.7637 74.5,47.5C 74.1667,47.1667 73.8333,46.8333 73.5,46.5C 71.0207,48.0761 68.354,49.0761 65.5,49.5C 67.2048,47.8079 69.2048,46.4746 71.5,45.5 Z"/></g>
<g><path style="opacity:1" fill="#c2ad90" d="M 12.5,57.5 C 12.6208,61.8247 11.9542,65.9913 10.5,70C 11.7332,71.6667 13.0665,73.1667 14.5,74.5C 14.7373,75.791 14.404,76.791 13.5,77.5C 12.5,77.5 11.5,77.5 10.5,77.5C 8.11954,74.4398 6.11954,71.1065 4.5,67.5C 6.29466,63.8746 8.29466,60.3746 10.5,57C 9.61983,55.6439 9.28649,54.1439 9.5,52.5C 10.212,51.2613 11.212,50.7613 12.5,51C 11.1888,53.2735 11.1888,55.4402 12.5,57.5 Z"/></g>
<g><path style="opacity:1" fill="#67523f" d="M 67.5,63.5 C 67.8128,67.0419 67.4794,70.3752 66.5,73.5C 66.8719,70.9783 66.0386,68.9783 64,67.5C 63.4459,70.6582 62.9459,73.8249 62.5,77C 62.5143,78.3847 62.8476,79.5514 63.5,80.5C 63.1667,81.5 62.5,82.1667 61.5,82.5C 60.2223,82.7822 59.2223,83.4489 58.5,84.5C 57.2225,83.2505 56.2225,81.7505 55.5,80C 57.2251,80.4087 58.8918,80.2421 60.5,79.5C 59.6518,77.5914 59.3184,75.5914 59.5,73.5C 57.8333,73.5 56.1667,73.5 54.5,73.5C 52.0872,69.3147 48.7539,68.4813 44.5,71C 43.8366,72.5185 42.8366,73.6851 41.5,74.5C 40.5354,73.2789 40.702,71.9456 42,70.5C 44.6959,68.5827 47.1959,66.5827 49.5,64.5C 50.7736,65.1894 50.7736,66.0228 49.5,67C 52.5857,67.9119 55.5857,69.0786 58.5,70.5C 59.8333,69.8333 60.8333,68.8333 61.5,67.5C 60.407,65.6508 59.0737,63.9842 57.5,62.5C 57.7093,61.914 58.0426,61.414 58.5,61C 56.7148,59.8372 54.7148,59.1705 52.5,59C 51.8695,56.901 50.8695,55.0677 49.5,53.5C 51.2624,53.3573 52.9291,53.6906 54.5,54.5C 55.6956,54.1543 55.6956,53.6543 54.5,53C 58.4914,52.5015 62.158,51.3348 65.5,49.5C 68.354,49.0761 71.0207,48.0761 73.5,46.5C 73.8333,46.8333 74.1667,47.1667 74.5,47.5C 70.9716,50.7637 66.9716,53.2637 62.5,55C 63.9506,54.7374 65.2839,54.9041 66.5,55.5C 65.3052,57.7513 64.3052,60.0846 63.5,62.5C 64.6888,63.4287 66.0222,63.762 67.5,63.5 Z"/></g>
<g><path style="opacity:1" fill="#20160c" d="M 54.5,73.5 C 52.8656,74.2066 51.5323,75.3732 50.5,77C 48.8659,77.4935 47.1992,77.6602 45.5,77.5C 44.791,76.596 43.791,76.2627 42.5,76.5C 42.7678,78.099 42.4345,79.4324 41.5,80.5C 40.1667,78.5 40.1667,76.5 41.5,74.5C 42.8366,73.6851 43.8366,72.5185 44.5,71C 48.7539,68.4813 52.0872,69.3147 54.5,73.5 Z"/></g>
<g><path style="opacity:1" fill="#9b8572" d="M 66.5,73.5 C 65.7729,75.9538 64.7729,78.2872 63.5,80.5C 62.8476,79.5514 62.5143,78.3847 62.5,77C 62.9459,73.8249 63.4459,70.6582 64,67.5C 66.0386,68.9783 66.8719,70.9783 66.5,73.5 Z"/></g>
<g><path style="opacity:1" fill="#382717" d="M 49.5,64.5 C 47.1959,66.5827 44.6959,68.5827 42,70.5C 40.702,71.9456 40.5354,73.2789 41.5,74.5C 40.1667,76.5 40.1667,78.5 41.5,80.5C 40.0937,80.9731 39.427,81.9731 39.5,83.5C 37.0283,84.6421 36.0283,86.6421 36.5,89.5C 34.0108,89.7022 31.6775,89.2022 29.5,88C 31.9455,85.5178 31.7788,83.0178 29,80.5C 28.0735,83.7058 26.9068,84.0392 25.5,81.5C 25.5792,80.0695 25.2458,78.7362 24.5,77.5C 22.3211,76.2433 20.3211,74.7433 18.5,73C 19.1552,71.5134 20.1552,70.3467 21.5,69.5C 23.3394,72.9787 26.006,74.312 29.5,73.5C 27.6136,72.5937 25.7803,71.5937 24,70.5C 23.5065,68.8659 23.3398,67.1992 23.5,65.5C 28.55,65.2182 31.55,67.5516 32.5,72.5C 32.8333,71.6667 33.1667,70.8333 33.5,70C 32.9614,67.4638 31.9614,65.1305 30.5,63C 31.1854,60.4598 32.0187,57.9598 33,55.5C 34.0113,54.6634 35.1779,54.33 36.5,54.5C 36.259,57.999 37.0924,58.3323 39,55.5C 40.0084,55.9817 41.175,56.1484 42.5,56C 42.799,57.3204 42.9657,58.8204 43,60.5C 44.0658,58.9005 45.5658,57.9005 47.5,57.5C 48.9438,59.6079 49.6104,61.9412 49.5,64.5 Z"/></g>
<g><path style="opacity:1" fill="#372616" d="M 45.5,77.5 C 47.4523,78.6209 50.119,78.7876 53.5,78C 54.4061,79.6995 54.7394,81.5328 54.5,83.5C 52.2655,83.6199 50.0989,83.2865 48,82.5C 45.0127,85.0938 42.846,84.4272 41.5,80.5C 42.4345,79.4324 42.7678,78.099 42.5,76.5C 43.791,76.2627 44.791,76.596 45.5,77.5 Z"/></g>
<g><path style="opacity:1" fill="#a7875c" d="M 10.5,77.5 C 11.5,77.5 12.5,77.5 13.5,77.5C 12.2819,81.3828 9.94852,84.3828 6.5,86.5C 6.16667,86.5 5.83333,86.5 5.5,86.5C 6.91657,83.331 8.58323,80.331 10.5,77.5 Z"/></g>
<g><path style="opacity:1" fill="#7c5d47" d="M 14.5,74.5 C 15.5824,76.3272 15.5824,78.3272 14.5,80.5C 14.833,83.01 15.833,85.1766 17.5,87C 14.534,88.3606 11.534,88.8606 8.5,88.5C 7.93619,92.6437 7.10286,96.6437 6,100.5C 5.5,100 5,99.5 4.5,99C 5.39487,95.9049 5.39487,92.7383 4.5,89.5C 5.90632,89.0269 6.57298,88.0269 6.5,86.5C 9.94852,84.3828 12.2819,81.3828 13.5,77.5C 14.404,76.791 14.7373,75.791 14.5,74.5 Z"/></g>
<g><path style="opacity:1" fill="#7a624a" d="M 39.5,83.5 C 41.2452,84.8063 43.2452,85.8063 45.5,86.5C 45.1373,87.1835 44.8039,87.8501 44.5,88.5C 40.6174,91.447 36.284,92.6137 31.5,92C 28.6286,89.2972 25.9619,86.4639 23.5,83.5C 23.5,82.1667 24.1667,81.5 25.5,81.5C 26.9068,84.0392 28.0735,83.7058 29,80.5C 31.7788,83.0178 31.9455,85.5178 29.5,88C 31.6775,89.2022 34.0108,89.7022 36.5,89.5C 36.0283,86.6421 37.0283,84.6421 39.5,83.5 Z"/></g>
<g><path style="opacity:1" fill="#38281a" d="M 23.5,83.5 C 25.9619,86.4639 28.6286,89.2972 31.5,92C 36.284,92.6137 40.6174,91.447 44.5,88.5C 47.7861,87.7929 51.1194,87.4595 54.5,87.5C 54.5,89.1667 54.5,90.8333 54.5,92.5C 51.1834,92.781 48.0168,92.781 45,92.5C 42.4406,94.6865 39.4406,95.6865 36,95.5C 30.2299,94.6482 24.7299,92.9815 19.5,90.5C 18.4639,88.6089 18.4639,86.7755 19.5,85C 18.8333,84.6667 18.1667,84.3333 17.5,84C 19.4727,83.5045 21.4727,83.3379 23.5,83.5 Z"/></g>
<g><path style="opacity:1" fill="#5c4832" d="M 54.5,73.5 C 56.1667,73.5 57.8333,73.5 59.5,73.5C 59.3184,75.5914 59.6518,77.5914 60.5,79.5C 58.8918,80.2421 57.2251,80.4087 55.5,80C 56.2225,81.7505 57.2225,83.2505 58.5,84.5C 56.3337,86.9979 55.3337,89.9979 55.5,93.5C 54.325,93.281 53.325,93.6143 52.5,94.5C 54.1713,96.5098 54.838,98.8431 54.5,101.5C 49.3706,101.719 49.3706,102.386 54.5,103.5C 54.2436,105.792 54.5769,107.959 55.5,110C 54.1824,110.694 53.3491,111.527 53,112.5C 48.7622,109.628 44.5956,106.628 40.5,103.5C 34.8885,106.529 34.2218,105.696 38.5,101C 39.5,100.667 40.5,100.333 41.5,100C 38.8738,99.005 36.2071,98.6717 33.5,99C 34.1667,99.6667 34.8333,100.333 35.5,101C 32.5706,101.777 29.7372,101.61 27,100.5C 27,102.5 27,104.5 27,106.5C 24.8762,107.622 23.0429,109.122 21.5,111C 21.8541,112.626 21.8541,114.459 21.5,116.5C 20.8333,116.5 20.1667,116.5 19.5,116.5C 18.0573,112.214 16.3907,108.047 14.5,104C 16.2072,103.805 17.8739,103.805 19.5,104C 18.8333,103.333 18.1667,102.667 17.5,102C 19.1667,101 20.8333,100 22.5,99C 19.8588,96.2417 17.8588,93.575 16.5,91C 17.3523,89.2716 18.3523,89.105 19.5,90.5C 24.7299,92.9815 30.2299,94.6482 36,95.5C 39.4406,95.6865 42.4406,94.6865 45,92.5C 48.0168,92.781 51.1834,92.781 54.5,92.5C 54.5,90.8333 54.5,89.1667 54.5,87.5C 51.1194,87.4595 47.7861,87.7929 44.5,88.5C 44.8039,87.8501 45.1373,87.1835 45.5,86.5C 43.2452,85.8063 41.2452,84.8063 39.5,83.5C 39.427,81.9731 40.0937,80.9731 41.5,80.5C 42.846,84.4272 45.0127,85.0938 48,82.5C 50.0989,83.2865 52.2655,83.6199 54.5,83.5C 54.7394,81.5328 54.4061,79.6995 53.5,78C 50.119,78.7876 47.4523,78.6209 45.5,77.5C 47.1992,77.6602 48.8659,77.4935 50.5,77C 51.5323,75.3732 52.8656,74.2066 54.5,73.5 Z"/></g>
<g><path style="opacity:1" fill="#533d2a" d="M 55.5,118.5 C 53.7231,118.214 52.0564,117.547 50.5,116.5C 49.0337,117.135 47.7003,117.969 46.5,119C 42.6425,119.81 38.9758,119.643 35.5,118.5C 38.5788,118.74 41.5788,118.407 44.5,117.5C 45.8304,115.653 45.497,114.153 43.5,113C 44.8721,112.598 46.2054,112.098 47.5,111.5C 51.7908,112.824 54.4575,115.158 55.5,118.5 Z"/></g>
<g><path style="opacity:1" fill="#af997f" d="M 58.5,102.5 C 59.158,105.156 59.8246,107.822 60.5,110.5C 60.2716,112.207 59.9383,113.874 59.5,115.5C 58.5041,115.586 57.6708,115.252 57,114.5C 56.6076,111.812 56.1076,109.145 55.5,106.5C 55.7538,104.583 56.7538,103.249 58.5,102.5 Z"/></g>
<g><path style="opacity:1" fill="#7a6048" d="M 61.5,82.5 C 57.5875,88.7052 56.5875,95.3719 58.5,102.5C 56.7538,103.249 55.7538,104.583 55.5,106.5C 56.1076,109.145 56.6076,111.812 57,114.5C 57.6708,115.252 58.5041,115.586 59.5,115.5C 59.3059,117.912 57.9726,118.912 55.5,118.5C 54.4575,115.158 51.7908,112.824 47.5,111.5C 46.2054,112.098 44.8721,112.598 43.5,113C 45.497,114.153 45.8304,115.653 44.5,117.5C 41.5788,118.407 38.5788,118.74 35.5,118.5C 30.7031,118.477 26.0365,117.811 21.5,116.5C 21.8541,114.459 21.8541,112.626 21.5,111C 23.0429,109.122 24.8762,107.622 27,106.5C 27,104.5 27,102.5 27,100.5C 29.7372,101.61 32.5706,101.777 35.5,101C 34.8333,100.333 34.1667,99.6667 33.5,99C 36.2071,98.6717 38.8738,99.005 41.5,100C 40.5,100.333 39.5,100.667 38.5,101C 34.2218,105.696 34.8885,106.529 40.5,103.5C 44.5956,106.628 48.7622,109.628 53,112.5C 53.3491,111.527 54.1824,110.694 55.5,110C 54.5769,107.959 54.2436,105.792 54.5,103.5C 49.3706,102.386 49.3706,101.719 54.5,101.5C 54.838,98.8431 54.1713,96.5098 52.5,94.5C 53.325,93.6143 54.325,93.281 55.5,93.5C 55.3337,89.9979 56.3337,86.9979 58.5,84.5C 59.2223,83.4489 60.2223,82.7822 61.5,82.5 Z"/></g>
</svg>
